<?xml version="1.0" encoding="utf-8"?>
<!-- Generator: Adobe Illustrator 21.0.0, SVG Export Plug-In . SVG Version: 6.00 Build 0)  -->
<svg version="1.1" id="图层_1" xmlns="http://www.w3.org/2000/svg" xmlns:xlink="http://www.w3.org/1999/xlink" x="0px" y="0px"
	 viewBox="0 0 716.3 811.3" style="enable-background:new 0 0 716.3 811.3;" xml:space="preserve">
<style type="text/css">
	.st0{fill:#FFFFFF;}
</style>
<path class="st0" d="M690.7,184.1L383.8,6.9c-15.8-9.1-35.4-9.1-51.2,0l-307,177.2C9.8,193.2,0,210.1,0,228.4v354.4
	c0,18.3,9.8,35.2,25.6,44.3l307,177.2c15.8,9.1,35.4,9.1,51.2,0l307-177.2c15.8-9.1,25.6-26.1,25.6-44.3V228.4
	C716.3,210.1,706.6,193.2,690.7,184.1L690.7,184.1z M665.1,424.8l-263.2-163l153.7-96.6l109.5,63.2V424.8z M351.5,522.4L168.1,408.7
	l185.6-116.6l183.5,113.6L351.5,522.4z M358.2,51.2l147.3,85.1L126.9,374.1c-2.3,1.5-4.3,3.3-6,5.4l-69.7-43.2v-108L358.2,51.2z
	 M51.2,396.6l252.1,156.1l-145.7,91.6L51.2,582.9V396.6z M358.2,760.1l-150.4-86.9l377.9-237.4l79.5,49.3v97.8L358.2,760.1z
	 M358.2,760.1"/>
</svg>
