<?xml version="1.0" encoding="utf-8"?>
<!-- Generator: Adobe Illustrator 21.0.0, SVG Export Plug-In . SVG Version: 6.00 Build 0)  -->
<svg version="1.1" id="图层_1" xmlns="http://www.w3.org/2000/svg" xmlns:xlink="http://www.w3.org/1999/xlink" x="0px" y="0px"
	 viewBox="0 0 820 820.7" style="enable-background:new 0 0 820 820.7;" xml:space="preserve">
<style type="text/css">
	.st0{clip-path:url(#SVGID_2_);fill:#EB5454;}
	.st1{clip-path:url(#SVGID_2_);fill:#FFFFFF;}
	.st2{fill:#FFFFFF;}
</style>
<g>
	<g>
		<defs>
			<rect id="SVGID_1_" x="0.1" width="819.8" height="820.7"/>
		</defs>
		<clipPath id="SVGID_2_">
			<use xlink:href="#SVGID_1_"  style="overflow:visible;"/>
		</clipPath>
		<path class="st0" d="M409.6,26.1c212.5,0,384,171.5,384,384c0,212.5-171.5,384-384,384c-212.5,0-384-171.5-384-384
			C25.6,197.6,197.1,26.1,409.6,26.1L409.6,26.1z M409.6,26.1"/>
		<path class="st1" d="M409.6,819.7C184.3,819.7,0,635.4,0,410.1C0,184.8,184.3,0.5,409.6,0.5c225.3,0,409.6,184.3,409.6,409.6
			C819.2,635.4,634.9,819.7,409.6,819.7L409.6,819.7z M409.6,51.7C212.5,51.7,51.2,213,51.2,410.1c0,197.1,161.3,358.4,358.4,358.4
			c197.1,0,358.4-161.3,358.4-358.4C768,213,606.7,51.7,409.6,51.7L409.6,51.7z M409.6,51.7"/>
	</g>
	<path class="st2" d="M256,384.5h307.2c15.4,0,25.6,10.2,25.6,25.6c0,15.4-10.2,25.6-25.6,25.6H256c-15.4,0-25.6-10.2-25.6-25.6
		C230.4,394.8,240.6,384.5,256,384.5L256,384.5z M256,384.5"/>
</g>
</svg>
