<?xml version="1.0" encoding="utf-8"?>
<!-- Generator: Adobe Illustrator 21.0.0, SVG Export Plug-In . SVG Version: 6.00 Build 0)  -->
<svg version="1.1" id="图层_1" xmlns="http://www.w3.org/2000/svg" xmlns:xlink="http://www.w3.org/1999/xlink" x="0px" y="0px"
	 viewBox="0 0 820 820.7" style="enable-background:new 0 0 820 820.7;" xml:space="preserve">
<style type="text/css">
	.st0{clip-path:url(#SVGID_2_);fill:#3DBDFF;}
</style>
<g>
	<g>
		<defs>
			<rect id="SVGID_1_" x="0.1" width="819.8" height="820.7"/>
		</defs>
		<clipPath id="SVGID_2_">
			<use xlink:href="#SVGID_1_"  style="overflow:visible;"/>
		</clipPath>
		<path class="st0" d="M756.2,191.9l-44.9,37.8c0.1,0.1,0.1,0.2,0.1,0.2L362.9,525.3L208.1,340.6l-47.7,40l155,184.9l-0.1,0.1
			l16.7,19.7l23.3,27.8l0.2-0.1l0.1,0.1l23.6-20l23.9-20.1L403,573l336.2-284.9c14.1,38,21.9,79.1,21.9,122
			c0,194.1-157.4,351.5-351.5,351.5c-194.1,0-351.5-157.4-351.5-351.5C58.1,216,215.4,58.6,409.6,58.6
			c105.7,0,200.5,46.8,264.9,120.6l44.4-37.4C643.9,55.3,533.2,0.5,409.6,0.5C183.4,0.5,0,183.9,0,410.1
			c0,226.2,183.4,409.6,409.6,409.6c226.2,0,409.6-183.4,409.6-409.6C819.2,329.9,796,255.1,756.2,191.9L756.2,191.9z M756.2,191.9"
			/>
	</g>
</g>
</svg>
