<?xml version="1.0" encoding="utf-8"?>
<!-- Generator: Adobe Illustrator 21.0.0, SVG Export Plug-In . SVG Version: 6.00 Build 0)  -->
<svg version="1.1" id="图层_1" xmlns="http://www.w3.org/2000/svg" xmlns:xlink="http://www.w3.org/1999/xlink" x="0px" y="0px"
	 viewBox="0 0 68.8 61.5" style="enable-background:new 0 0 68.8 61.5;" xml:space="preserve">
<style type="text/css">
	.st0{fill:#E61F19;}
</style>
<g>
	<g>
		<path class="st0" d="M61,61.5c6.9,0,9.8-4.9,6.3-10.9L40.7,4.5c-3.5-6-9.2-6-12.6,0L1.5,50.6c-3.5,6-0.6,10.9,6.3,10.9L61,61.5z
			 M34.4,16c2.8,0,4.9,5.7,4.6,12.6v0c-0.2,6.9-0.5,12.6-0.6,12.6h-7.9c-0.2,0-0.6-5.7-0.8-12.6v0C29.6,21.7,31.7,16,34.4,16
			L34.4,16z M29.7,49.3c0-2.7,2.2-4.9,4.9-4.9c2.7,0,4.9,2.2,4.9,4.9c0,2.7-2.2,4.9-4.9,4.9C31.9,54.2,29.7,52.1,29.7,49.3
			L29.7,49.3z M29.7,49.3"/>
	</g>
</g>
</svg>
