<?xml version="1.0" encoding="utf-8"?>
<!-- Generator: Adobe Illustrator 21.0.0, SVG Export Plug-In . SVG Version: 6.00 Build 0)  -->
<svg version="1.1" id="图层_1" xmlns="http://www.w3.org/2000/svg" xmlns:xlink="http://www.w3.org/1999/xlink" x="0px" y="0px"
	 viewBox="0 0 50.8 50.8" style="enable-background:new 0 0 50.8 50.8;" xml:space="preserve">
<g>
	<g>
		<path d="M36.6,0h8.1c3.4,0,6.1,2.7,6.1,6.1v8.1c0,1.1-0.9,2-2,2c-1.1,0-2-0.9-2-2V8.1c0-2.2-1.8-4.1-4.1-4.1h-6.1
			c-1.1,0-2-0.9-2-2C34.5,0.9,35.5,0,36.6,0L36.6,0z M36.6,50.8c-1.1,0-2-0.9-2-2c0-1.1,0.9-2,2-2h6.1c2.2,0,4.1-1.8,4.1-4.1v-6.1
			c0-1.1,0.9-2,2-2c1.1,0,2,0.9,2,2v8.1c0,3.4-2.7,6.1-6.1,6.1H36.6z M4.1,36.6v6.1c0,2.2,1.8,4.1,4.1,4.1h6.1c1.1,0,2,0.9,2,2
			c0,1.1-0.9,2-2,2H6.1c-3.4,0-6.1-2.7-6.1-6.1v-8.1c0-1.1,0.9-2,2-2C3.2,34.5,4.1,35.5,4.1,36.6L4.1,36.6z M14.2,0c1.1,0,2,0.9,2,2
			c0,1.1-0.9,2-2,2H8.1c-2.2,0-4.1,1.8-4.1,4.1v6.1c0,1.1-0.9,2-2,2c-1.1,0-2-0.9-2-2V6.1C0,2.7,2.7,0,6.1,0H14.2z M2,22.4h46.7
			c1.1,0,2,0.9,2,2c0,1.1-0.9,2-2,2H2c-1.1,0-2-0.9-2-2C0,23.3,0.9,22.4,2,22.4L2,22.4z M2,22.4"/>
	</g>
</g>
</svg>
