<?xml version="1.0" encoding="utf-8"?>
<!-- Generator: Adobe Illustrator 21.0.0, SVG Export Plug-In . SVG Version: 6.00 Build 0)  -->
<svg version="1.1" id="图层_1" xmlns="http://www.w3.org/2000/svg" xmlns:xlink="http://www.w3.org/1999/xlink" x="0px" y="0px"
	 viewBox="0 0 58.2 58.3" style="enable-background:new 0 0 58.2 58.3;" xml:space="preserve">
<style type="text/css">
	.st0{fill:none;}
	.st1{fill:#36AD37;}
</style>
<rect x="0" class="st0" width="58.2" height="58.3"/>
<path class="st1" d="M29.1,0.1C13,0.1,0,13.1,0,29.1c0,16.1,13,29.1,29.1,29.1c16.1,0,29.1-13,29.1-29.1
	C58.2,13.1,45.2,0.1,29.1,0.1z M33.2,45.8c0,2.8-1.4,4.2-4.2,4.2c-2.8,0-4.2-1.4-4.2-4.2V29.1c0-2.8,1.4-4.2,4.2-4.2
	c2.8,0,4.2,1.4,4.2,4.2V45.8z M29.1,20.8c-2.3,0-4.2-1.9-4.2-4.2c0-1.5,0.8-2.9,2.1-3.6c1.3-0.7,2.9-0.7,4.2,0
	c1.3,0.7,2.1,2.1,2.1,3.6C33.2,19,31.4,20.8,29.1,20.8z"/>
</svg>
