<?xml version="1.0" encoding="utf-8"?>
<!-- Generator: Adobe Illustrator 21.0.0, SVG Export Plug-In . SVG Version: 6.00 Build 0)  -->
<svg version="1.1" id="图层_1" xmlns="http://www.w3.org/2000/svg" xmlns:xlink="http://www.w3.org/1999/xlink" x="0px" y="0px"
	 viewBox="0 0 944 325.7" style="enable-background:new 0 0 944 325.7;" xml:space="preserve">
<style type="text/css">
	.st0{fill:#FF3B4E;}
	.st1{fill:#FFFFFF;}
</style>
<polygon class="st0" points="182.8,0 0,162.9 182.8,325.7 944,325.7 944,0 "/>
<g>
	<path class="st1" d="M316.7,76L410.2,212h1V76h27.9v182.9H412l-94.5-137.6h-1v137.6h-27.9V76H316.7z"/>
	<path class="st1" d="M606.7,76v23.8H503.2v53.3h97.4v23.8h-97.4v58.2h107.9v23.8H475.3V76H606.7z"/>
	<path class="st1" d="M654.4,76L690,218.4h1L728.4,76h29.2L795,218.4h1L831.7,76h31.5l-52.8,182.9h-29.7l-37.2-141.2h-1l-37.2,141.2
		h-30L622.8,76H654.4z"/>
</g>
</svg>
