<?xml version="1.0" encoding="utf-8"?>
<!-- Generator: Adobe Illustrator 21.0.0, SVG Export Plug-In . SVG Version: 6.00 Build 0)  -->
<svg version="1.1" id="图层_1" xmlns="http://www.w3.org/2000/svg" xmlns:xlink="http://www.w3.org/1999/xlink" x="0px" y="0px"
	 viewBox="0 0 768 768" style="enable-background:new 0 0 768 768;" xml:space="preserve">
<style type="text/css">
	.st0{fill:#FFFFFF;}
</style>
<g>
	<path class="st0" d="M56.3,495L193,305.8c8.3-11.4,24.3-14,35.8-5.8c1.2,0.9,2.3,1.8,3.3,2.8l158.6,162l112.2-86.2
		c8.8-6.7,20.9-7,30.1-0.8l178.7,122.4V102.4c0-25.4-20.6-46.1-46.1-46.1H102.4C77,56.3,56.3,77,56.3,102.4V495z M711.7,568.2
		l-190-133l-140,107.5L218.4,371.2L56.3,589.6v76c0,25.4,20.6,46.1,46.1,46.1h563.2c25.4,0,46.1-20.6,46.1-46.1V568.2z M576.8,289.9
		c-36.2,0-65.4-29.3-65.4-65.4c0-36.2,29.3-65.4,65.4-65.4c36.2,0,65.4,29.3,65.4,65.4C642.2,260.6,612.9,289.9,576.8,289.9
		L576.8,289.9z M102.4,0h563.2C722.2,0,768,45.8,768,102.4v563.2c0,56.6-45.8,102.4-102.4,102.4H102.4C45.8,768,0,722.2,0,665.6
		V102.4C0,45.8,45.8,0,102.4,0L102.4,0z M102.4,0"/>
</g>
</svg>
