<?xml version="1.0" encoding="utf-8"?>
<!-- Generator: Adobe Illustrator 21.0.0, SVG Export Plug-In . SVG Version: 6.00 Build 0)  -->
<svg version="1.1" id="图层_1" xmlns="http://www.w3.org/2000/svg" xmlns:xlink="http://www.w3.org/1999/xlink" x="0px" y="0px"
	 viewBox="0 0 780.5 815.2" style="enable-background:new 0 0 780.5 815.2;" xml:space="preserve">
<style type="text/css">
	.st0{fill:#FFFFFF;}
</style>
<path class="st0" d="M631.7,271.7C631.7,121.7,510,0,360,0C209.9,0,88.2,121.7,88.2,271.7c-1.3,98.2,52.3,189,138.9,235.4
	C109.9,552.8,24.3,655.5,0.6,779c-1.7,8-0.1,16.3,4.5,23.1c4.5,6.8,11.6,11.5,19.6,13h6c14.6,0.6,27.4-9.7,30.1-24.1
	C88.7,649,212,545.8,356.8,543.4h6C511.2,540.7,630.5,420.2,631.7,271.7L631.7,271.7z M148.6,271.7C148.6,155,243.2,60.4,360,60.4
	c116.7,0,211.4,94.6,211.4,211.4c-1,115.1-93.2,208.6-208.3,211.3h-9.1C240.3,478.1,150.3,385.4,148.6,271.7L148.6,271.7z
	 M568.3,543.5c-0.5,8.1,2.5,16,8.3,21.8c5.7,5.7,13.7,8.8,21.8,8.3h151c11,0.4,21.4-5.3,27-14.7c5.6-9.5,5.6-21.3,0-30.7
	c-5.6-9.5-16-15.1-27-14.7h-151C581.8,513.4,568.3,526.9,568.3,543.5L568.3,543.5z M749.5,631H507.9c-16.7,0-30.2,13.5-30.2,30.2
	c0,16.7,13.5,30.2,30.2,30.2h241.6c16.7,0,30.2-13.5,30.2-30.2C779.7,644.5,766.1,631,749.5,631L749.5,631z M749.5,751.8H510.9
	c-16.7,0-30.2,13.5-30.2,30.2c0,16.7,13.5,30.2,30.2,30.2h238.5c8.1,0.5,16.1-2.6,21.8-8.3c5.7-5.8,8.8-13.7,8.3-21.8
	C779.5,765.4,766.1,751.9,749.5,751.8L749.5,751.8z M749.5,751.8"/>
</svg>
