<?xml version="1.0" encoding="utf-8"?>
<!-- Generator: Adobe Illustrator 21.0.0, SVG Export Plug-In . SVG Version: 6.00 Build 0)  -->
<svg version="1.1" id="图层_1" xmlns="http://www.w3.org/2000/svg" xmlns:xlink="http://www.w3.org/1999/xlink" x="0px" y="0px"
	 viewBox="0 0 527.6 536.1" style="enable-background:new 0 0 527.6 536.1;" xml:space="preserve">
<style type="text/css">
	.st0{fill:#FFFFFF;}
</style>
<g>
	<path class="st0" d="M516.7,155.5L516.7,155.5L407.4,254l-0.1-0.1c-5.8,5.2-13.4,8.5-21.9,8.5c-18.1,0-32.8-14.7-32.8-32.8
		c0-9.7,4.3-18.3,10.9-24.3l-0.1-0.1l45.8-41.2H32.8C14.7,164,0,149.3,0,131.2c0-18.1,14.7-32.8,32.8-32.8h85.5v0h-6.2v0h142.2v0
		h155.1l-45.8-41.2l0.1-0.1c-6.7-6-10.9-14.6-10.9-24.3c0-18.1,14.7-32.8,32.8-32.8c8.4,0,16.1,3.3,21.9,8.5l0.1-0.1l109.4,98.4
		l-0.1,0.1c6.7,6,10.9,14.6,10.9,24.3C527.6,140.9,523.4,149.5,516.7,155.5L516.7,155.5z M516.7,155.5"/>
	<path class="st0" d="M0,404.9c0-9.7,4.3-18.3,10.9-24.3l-0.1-0.1l109.4-98.4l0.1,0.1c5.8-5.2,13.4-8.5,21.9-8.5
		c18.1,0,32.8,14.7,32.8,32.8c0,9.7-4.3,18.3-10.9,24.3l0.1,0.1l-45.8,41.2h155.1v0h142.2v0h-6.2v0h85.5c18.1,0,32.8,14.7,32.8,32.8
		c0,18.1-14.7,32.8-32.8,32.8H118.3l45.8,41.2L164,479c6.7,6,10.9,14.6,10.9,24.3c0,18.1-14.7,32.8-32.8,32.8
		c-8.4,0-16.1-3.3-21.9-8.5l-0.1,0.1L10.9,429.3l0.1-0.1C4.3,423.2,0,414.6,0,404.9L0,404.9z M0,404.9"/>
</g>
</svg>
