<?xml version="1.0" encoding="utf-8"?>
<!-- Generator: Adobe Illustrator 21.0.0, SVG Export Plug-In . SVG Version: 6.00 Build 0)  -->
<svg version="1.1" id="图层_1" xmlns="http://www.w3.org/2000/svg" xmlns:xlink="http://www.w3.org/1999/xlink" x="0px" y="0px"
	 viewBox="0 0 762.2 655.4" style="enable-background:new 0 0 762.2 655.4;" xml:space="preserve">
<style type="text/css">
	.st0{fill:#FFFFFF;}
</style>
<path class="st0" d="M177.5,263.3H236V316h-58.5V263.3z M288.7,263.3h310.1V316H288.7V263.3z M177.5,409.6H236v58.5h-58.5V409.6z
	 M288.7,409.6h310.1v52.7H288.7V409.6z M288.7,409.6"/>
<path class="st0" d="M725.6,655.4H41c-17.6,0-41-23.4-41-41V35.1C0,17.6,23.4,0,41,0h257.5c11.7,0,29.3,5.9,35.1,11.7l35.1,52.7
	h351.1c17.6,0,41,23.4,41,41v503.2C766.5,637.8,754.8,655.4,725.6,655.4L725.6,655.4z M70.2,602.7h626.1c5.9,0,11.7-5.8,11.7-11.7
	V140.4c0-5.9-5.9-11.7-11.7-11.7H351.1l-41-58.5c-5.9-11.7-5.9-11.7-17.6-11.7H70.2c-5.9,0-11.7,5.9-11.7,11.7V591
	C58.5,596.8,64.4,602.7,70.2,602.7L70.2,602.7z M70.2,602.7"/>
</svg>
