<?xml version="1.0" encoding="utf-8"?>
<!-- Generator: Adobe Illustrator 21.0.0, SVG Export Plug-In . SVG Version: 6.00 Build 0)  -->
<svg version="1.1" id="图层_1" xmlns="http://www.w3.org/2000/svg" xmlns:xlink="http://www.w3.org/1999/xlink" x="0px" y="0px"
	 viewBox="0 0 712.7 712.7" style="enable-background:new 0 0 712.7 712.7;" xml:space="preserve">
<style type="text/css">
	.st0{fill:#FFFFFF;}
</style>
<path class="st0" d="M356.4,712.7C159.7,712.7,0,553,0,356.4C0,159.7,159.7,0,356.4,0H385v327.7h327.7v28.7
	C712.7,553,553,712.7,356.4,712.7L356.4,712.7z M327.7,58.6C175.7,73.3,57.3,203.2,57.3,356.4c0,79.9,30.7,154.8,87.2,211.4
	c56.5,56.5,131.5,87.7,211.4,88.1h0.4c153.2,0,283-118.4,297.8-270.7H327.7V58.6z M665.6,276.1c-11.5,0-22.5-7.4-26.6-18.4
	c-30.3-86-97.1-152.8-183.5-183.1c-7.4-2.9-13.1-8.6-16-15.6c-2.9-7.4-3.3-15.2-0.4-21.7c4.5-11.1,14.7-18,26.6-18
	c2.9,0,5.7,0.4,8.6,1.6c102.8,36,182.3,115.5,218.3,218.3c2.5,7.4,2,15.2-1.2,22.1c-3.3,6.6-9.4,11.9-16.8,14.3h-0.4l-1.6,0.4
	C670.5,275.7,668.1,276.1,665.6,276.1L665.6,276.1z M665.6,276.1"/>
</svg>
