<?xml version="1.0" encoding="utf-8"?>
<!-- Generator: Adobe Illustrator 21.0.0, SVG Export Plug-In . SVG Version: 6.00 Build 0)  -->
<svg version="1.1" id="图层_1" xmlns="http://www.w3.org/2000/svg" xmlns:xlink="http://www.w3.org/1999/xlink" x="0px" y="0px"
	 viewBox="0 0 817.2 819.2" style="enable-background:new 0 0 817.2 819.2;" xml:space="preserve">
<style type="text/css">
	.st0{fill:#E8413E;}
</style>
<g>
	<g>
		<defs>
			<rect id="SVGID_1_" x="0" y="-0.5" width="817.9" height="820.7"/>
		</defs>
		<clipPath id="SVGID_2_">
			<use xlink:href="#SVGID_1_"  style="overflow:visible;"/>
		</clipPath>
	</g>
	<path class="st0" d="M407.4,819.2C188.2,818,8.9,644.5,0.3,425.5C-8.2,206.5,157.1,19.6,375.5,1.3C386.3,0.4,397.3,0,408.3,0
		c150.9,0.2,289.4,83.3,360.6,216.4c71.1,133,63.4,294.4-20.2,420c-8.4,12.6-25.5,16-38.1,7.6c-12.6-8.4-16-25.5-7.6-38.1
		c44.3-65.9,64.8-145,58.3-224.1C746.9,198.5,591.7,54.9,407.9,54.9c-9.3,0-18.6,0.4-27.9,1.1c-93.8,7.3-180.8,51.6-241.9,123.1
		C77,250.6,46.8,343.4,54.2,437.2c14.4,183.3,169.5,326.9,353.2,326.9c9.3,0,18.7-0.4,28-1.1c36.7-2.8,72.7-11.3,106.8-25.3
		c3.3-1.4,6.8-2.1,10.4-2c13.1,0,24.4,9.3,26.9,22.1c2.5,12.9-4.4,25.7-16.5,30.7c-39.3,16.1-80.9,25.9-123.3,29.2
		C428.7,818.6,417.8,819.2,407.4,819.2L407.4,819.2z M407.4,819.2"/>
	<path class="st0" d="M262.1,604c-10.8,0-20.5-6.4-24.6-16.4c-4.1-9.9-1.8-21.4,5.8-29L381,420.9L243.5,283.1
		c-10.3-10.4-10.3-27.1,0-37.4c5-5,11.7-7.8,18.8-7.8s13.8,2.8,18.8,7.8l137.8,137.8l137.5-137.8c10.3-9.7,26.3-9.7,36.5,0
		c10.7,10.1,11.2,26.9,1.2,37.6L456.2,421.2L594,558.9c7.4,7.7,9.5,19.1,5.3,28.9c-4.2,9.8-13.9,16.2-24.6,16.1
		c-6.8,0-13.3-2.6-18.2-7.2L418.7,458.7L280.8,596.2C275.9,601.3,269.1,604.1,262.1,604L262.1,604z M262.1,604"/>
</g>
</svg>
